<svg xmlns="http://www.w3.org/2000/svg" viewBox="0 0 200 60" width="200" height="60">
  <!-- Google Cloud multicolored logo -->
  <defs>
    <linearGradient id="grad1" x1="0%" y1="0%" x2="100%" y2="100%">
      <stop offset="0%" style="stop-color:#4285f4;stop-opacity:1" />
      <stop offset="33%" style="stop-color:#34a853;stop-opacity:1" />
      <stop offset="66%" style="stop-color:#fbbc04;stop-opacity:1" />
      <stop offset="100%" style="stop-color:#ea4335;stop-opacity:1" />
    </linearGradient>
  </defs>
  
  <!-- Cloud icon -->
  <g transform="translate(10, 15)">
    <path d="M25 15c-3.86 0-7 3.14-7 7 0 1.93.78 3.68 2.05 4.95L25 22c2.76 0 5-2.24 5-5s-2.24-5-5-5z" fill="url(#grad1)"/>
    <path d="M35 20c0-5.52-4.48-10-10-10-2.09 0-4.02.64-5.63 1.74C17.45 9.4 15 6.45 15 3c0-1.66 1.34-3 3-3s3 1.34 3 3c0 .55.45 1 1 1s1-.45 1-1c0-2.76-2.24-5-5-5S13 .24 13 3c0 4.96 3.12 9.18 7.5 10.8C21.99 15.21 23.9 16 26 16c3.31 0 6 2.69 6 6z" fill="url(#grad1)" opacity="0.8"/>
  </g>
  
  <!-- Text -->
  <g transform="translate(50, 12)">
    <text x="0" y="15" font-family="'Google Sans', Arial, sans-serif" font-size="16" font-weight="400" fill="#5f6368">Google</text>
    <text x="0" y="35" font-family="'Google Sans', Arial, sans-serif" font-size="16" font-weight="400" fill="#5f6368">Cloud</text>
  </g>
</svg> 