<svg xmlns="http://www.w3.org/2000/svg" width="32" height="32" viewBox="0 0 32 32">
  <defs>
    <linearGradient id="cloudGradient" x1="0%" y1="0%" x2="100%" y2="100%">
      <stop offset="0%" style="stop-color:#4285f4;stop-opacity:1" />
      <stop offset="100%" style="stop-color:#34a853;stop-opacity:1" />
    </linearGradient>
  </defs>
  
  <!-- Main cloud shape -->
  <path d="M24 18c1.1 0 2-.9 2-2s-.9-2-2-2c-.2-2.2-2-4-4.2-4-1.4 0-2.6.7-3.3 1.8-.5-.5-1.2-.8-2-.8-1.1 0-2 .6-2.4 1.5C11.4 12.6 10.7 13 10 13c-1.7 0-3 1.3-3 3s1.3 3 3 3h14z" fill="url(#cloudGradient)"/>
  
  <!-- Network nodes -->
  <circle cx="8" cy="24" r="2" fill="#ea4335"/>
  <circle cx="24" cy="24" r="2" fill="#fbbc04"/>
  <circle cx="16" cy="28" r="2" fill="#34a853"/>
  
  <!-- Connection lines -->
  <line x1="8" y1="24" x2="16" y2="28" stroke="#1976d2" stroke-width="1.5" opacity="0.7"/>
  <line x1="24" y1="24" x2="16" y2="28" stroke="#1976d2" stroke-width="1.5" opacity="0.7"/>
  <line x1="8" y1="24" x2="24" y2="24" stroke="#1976d2" stroke-width="1.5" opacity="0.7"/>
</svg> 